<?xml version="1.0" encoding="UTF-8" standalone="no"?>
<!DOCTYPE svg PUBLIC "-//W3C//DTD SVG 1.1//EN"
 "http://www.w3.org/Graphics/SVG/1.1/DTD/svg11.dtd">
<!-- Generated by graphviz version 2.43.0 (0)
 -->
<!-- Title: G Pages: 1 -->
<svg width="461pt" height="260pt"
 viewBox="0.00 0.00 460.74 260.00" xmlns="http://www.w3.org/2000/svg" xmlns:xlink="http://www.w3.org/1999/xlink">
<g id="graph0" class="graph" transform="scale(1 1) rotate(0) translate(4 256)">
<title>G</title><style>.edge>path:hover{stroke-width:8}</style>
<polygon fill="white" stroke="transparent" points="-4,4 -4,-256 456.74,-256 456.74,4 -4,4"/>
<!-- xfds__render -->
<g id="node1" class="node">
<title>xfds__render</title><style>.edge>path:hover{stroke-width:8}</style>
<ellipse fill="#a44646" stroke="black" cx="45.33" cy="-90" rx="45.15" ry="18"/>
<text text-anchor="middle" x="45.33" y="-87.5" font-family="Helvetica,sans-Serif" font-size="10.00" fill="#ffffff">xfds._render</text>
</g>
<!-- xfds_cli -->
<g id="node5" class="node">
<title>xfds_cli</title><style>.edge>path:hover{stroke-width:8}</style>
<ellipse fill="#883a3a" stroke="black" cx="282.33" cy="-18" rx="30.72" ry="18"/>
<text text-anchor="middle" x="282.33" y="-15.5" font-family="Helvetica,sans-Serif" font-size="10.00" fill="#ffffff">xfds.cli</text>
</g>
<!-- xfds__render&#45;&gt;xfds_cli -->
<g id="edge1" class="edge">
<title>xfds__render&#45;&gt;xfds_cli</title><style>.edge>path:hover{stroke-width:8}</style>
<path fill="none" stroke="black" d="M79.57,-78.09C86.12,-76.04 92.93,-73.93 99.33,-72 149.83,-56.74 208.44,-39.92 245.45,-29.41"/>
<polygon fill="#a44646" stroke="black" points="246.63,-32.71 255.29,-26.62 244.72,-25.98 246.63,-32.71"/>
</g>
<!-- xfds__reset -->
<g id="node2" class="node">
<title>xfds__reset</title><style>.edge>path:hover{stroke-width:8}</style>
<ellipse fill="#a44646" stroke="black" cx="150.33" cy="-90" rx="41.59" ry="18"/>
<text text-anchor="middle" x="150.33" y="-87.5" font-family="Helvetica,sans-Serif" font-size="10.00" fill="#ffffff">xfds._reset</text>
</g>
<!-- xfds__reset&#45;&gt;xfds_cli -->
<g id="edge2" class="edge">
<title>xfds__reset&#45;&gt;xfds_cli</title><style>.edge>path:hover{stroke-width:8}</style>
<path fill="none" stroke="black" d="M175.78,-75.5C197.38,-64.05 228.43,-47.58 251.45,-35.38"/>
<polygon fill="#a44646" stroke="black" points="253.26,-38.38 260.46,-30.6 249.98,-32.19 253.26,-38.38"/>
</g>
<!-- xfds__run -->
<g id="node3" class="node">
<title>xfds__run</title><style>.edge>path:hover{stroke-width:8}</style>
<ellipse fill="#a44646" stroke="black" cx="380.33" cy="-90" rx="36.49" ry="18"/>
<text text-anchor="middle" x="380.33" y="-87.5" font-family="Helvetica,sans-Serif" font-size="10.00" fill="#ffffff">xfds._run</text>
</g>
<!-- xfds__run&#45;&gt;xfds_cli -->
<g id="edge3" class="edge">
<title>xfds__run&#45;&gt;xfds_cli</title><style>.edge>path:hover{stroke-width:8}</style>
<path fill="none" stroke="black" d="M360.5,-74.83C345.87,-64.39 325.78,-50.04 309.64,-38.51"/>
<polygon fill="#a44646" stroke="black" points="311.3,-35.4 301.13,-32.43 307.23,-41.09 311.3,-35.4"/>
</g>
<!-- xfds__stop -->
<g id="node4" class="node">
<title>xfds__stop</title><style>.edge>path:hover{stroke-width:8}</style>
<ellipse fill="#ac4949" stroke="black" cx="249.33" cy="-90" rx="39.38" ry="18"/>
<text text-anchor="middle" x="249.33" y="-87.5" font-family="Helvetica,sans-Serif" font-size="10.00" fill="#ffffff">xfds._stop</text>
</g>
<!-- xfds__stop&#45;&gt;xfds_cli -->
<g id="edge4" class="edge">
<title>xfds__stop&#45;&gt;xfds_cli</title><style>.edge>path:hover{stroke-width:8}</style>
<path fill="none" stroke="black" d="M257.32,-72.05C261.13,-63.97 265.77,-54.12 270.02,-45.11"/>
<polygon fill="#ac4949" stroke="black" points="273.31,-46.33 274.41,-35.79 266.98,-43.34 273.31,-46.33"/>
</g>
<!-- xfds_config -->
<g id="node6" class="node">
<title>xfds_config</title><style>.edge>path:hover{stroke-width:8}</style>
<ellipse fill="#e72222" stroke="black" cx="249.33" cy="-234" rx="41.41" ry="18"/>
<text text-anchor="middle" x="249.33" y="-231.5" font-family="Helvetica,sans-Serif" font-size="10.00" fill="#ffffff">xfds.config</text>
</g>
<!-- xfds_config&#45;&gt;xfds__render -->
<g id="edge5" class="edge">
<title>xfds_config&#45;&gt;xfds__render</title><style>.edge>path:hover{stroke-width:8}</style>
<path fill="none" stroke="black" d="M225.21,-219.18C204.03,-206.32 173.11,-185.76 150.33,-163"/>
<path fill="none" stroke="black" d="M150.33,-161C129.85,-140.54 102.54,-122.56 80.9,-109.94"/>
<polygon fill="#e72222" stroke="black" points="82.44,-106.78 72.02,-104.87 78.97,-112.86 82.44,-106.78"/>
</g>
<!-- xfds_config&#45;&gt;xfds__reset -->
<g id="edge6" class="edge">
<title>xfds_config&#45;&gt;xfds__reset</title><style>.edge>path:hover{stroke-width:8}</style>
<path fill="none" stroke="black" d="M150.33,-161C139.39,-150.08 139.32,-132.74 142.02,-118.05"/>
<polygon fill="#e72222" stroke="black" points="145.51,-118.49 144.35,-107.96 138.69,-116.91 145.51,-118.49"/>
</g>
<!-- xfds_config&#45;&gt;xfds__run -->
<g id="edge7" class="edge">
<title>xfds_config&#45;&gt;xfds__run</title><style>.edge>path:hover{stroke-width:8}</style>
<path fill="none" stroke="black" d="M290.76,-233.75C340.51,-232 420.27,-220 444.33,-163"/>
<path fill="none" stroke="black" d="M444.33,-161C453.2,-139.99 433.73,-121.22 414,-108.42"/>
<polygon fill="#e72222" stroke="black" points="415.68,-105.35 405.31,-103.14 412.04,-111.33 415.68,-105.35"/>
</g>
<!-- xfds_config&#45;&gt;xfds_cli -->
<g id="edge8" class="edge">
<title>xfds_config&#45;&gt;xfds_cli</title><style>.edge>path:hover{stroke-width:8}</style>
<path fill="none" stroke="black" d="M444.33,-161C460.06,-123.74 451.79,-102.59 425.33,-72 399.46,-42.09 355.11,-29.04 322.64,-23.36"/>
<polygon fill="#e72222" stroke="black" points="322.98,-19.87 312.56,-21.76 321.89,-26.78 322.98,-19.87"/>
</g>
<!-- xfds_log -->
<g id="node7" class="node">
<title>xfds_log</title><style>.edge>path:hover{stroke-width:8}</style>
<ellipse fill="#dd1818" stroke="black" cx="249.33" cy="-162" rx="32.93" ry="18"/>
<text text-anchor="middle" x="249.33" y="-159.5" font-family="Helvetica,sans-Serif" font-size="10.00" fill="#ffffff">xfds.log</text>
</g>
<!-- xfds_config&#45;&gt;xfds_log -->
<g id="edge9" class="edge">
<title>xfds_config&#45;&gt;xfds_log</title><style>.edge>path:hover{stroke-width:8}</style>
<path fill="none" stroke="black" d="M249.33,-215.7C249.33,-207.98 249.33,-198.71 249.33,-190.11"/>
<polygon fill="#e72222" stroke="black" points="252.83,-190.1 249.33,-180.1 245.83,-190.1 252.83,-190.1"/>
</g>
<!-- xfds_log&#45;&gt;xfds__render -->
<g id="edge10" class="edge">
<title>xfds_log&#45;&gt;xfds__render</title><style>.edge>path:hover{stroke-width:8}</style>
<path fill="none" stroke="black" d="M222.24,-151.7C187.99,-139.95 128.65,-119.59 88.22,-105.72"/>
<polygon fill="#dd1818" stroke="black" points="89.22,-102.36 78.63,-102.43 86.95,-108.98 89.22,-102.36"/>
</g>
<!-- xfds_log&#45;&gt;xfds__reset -->
<g id="edge11" class="edge">
<title>xfds_log&#45;&gt;xfds__reset</title><style>.edge>path:hover{stroke-width:8}</style>
<path fill="none" stroke="black" d="M229.77,-147.17C215.5,-137.08 195.93,-123.24 179.78,-111.82"/>
<polygon fill="#dd1818" stroke="black" points="181.4,-108.68 171.21,-105.77 177.36,-114.4 181.4,-108.68"/>
</g>
<!-- xfds_log&#45;&gt;xfds__run -->
<g id="edge12" class="edge">
<title>xfds_log&#45;&gt;xfds__run</title><style>.edge>path:hover{stroke-width:8}</style>
<path fill="none" stroke="black" d="M272.15,-148.81C292.98,-137.67 324.03,-121.08 347.53,-108.53"/>
<polygon fill="#dd1818" stroke="black" points="349.27,-111.56 356.44,-103.76 345.97,-105.39 349.27,-111.56"/>
</g>
<!-- xfds_log&#45;&gt;xfds__stop -->
<g id="edge13" class="edge">
<title>xfds_log&#45;&gt;xfds__stop</title><style>.edge>path:hover{stroke-width:8}</style>
<path fill="none" stroke="black" d="M249.33,-143.7C249.33,-135.98 249.33,-126.71 249.33,-118.11"/>
<polygon fill="#dd1818" stroke="black" points="252.83,-118.1 249.33,-108.1 245.83,-118.1 252.83,-118.1"/>
</g>
<!-- xfds_log&#45;&gt;xfds_cli -->
<g id="edge14" class="edge">
<title>xfds_log&#45;&gt;xfds_cli</title><style>.edge>path:hover{stroke-width:8}</style>
<path fill="none" stroke="black" d="M267.56,-146.94C278.47,-137.32 291.34,-123.52 297.33,-108 305.17,-87.65 300.05,-63.11 293.74,-44.96"/>
<polygon fill="#dd1818" stroke="black" points="297.01,-43.71 290.19,-35.6 290.47,-46.19 297.01,-43.71"/>
</g>
</g>
</svg>
